<svg width="1200" height="1200" viewBox="0 0 1200 1200" fill="none" xmlns="http://www.w3.org/2000/svg">
<g clip-path="url(#clip0_3_2)">
<path d="M597.344 557.461C476.106 557.461 365.954 572.037 284.405 595.79V798.691C365.954 822.445 476.106 837.02 597.344 837.02C736.104 837.02 860.331 817.928 943.775 787.834V606.65C860.331 576.555 736.104 557.461 597.344 557.461Z" fill="#A52B00"/>
<path d="M1068.75 722.322L1054.54 692.881C1054.61 691.763 1054.67 690.644 1054.67 689.521C1054.67 656.146 1019.96 625.386 961.573 600.759V778.285C988.818 766.793 1010.92 753.968 1026.73 740.16C1022.08 758.867 1006.16 796.713 993.479 823.328C972.629 861.394 965.079 894.531 966.047 896.172C966.664 897.205 973.777 886.232 984.266 868.451C1008.68 833.67 1054.93 767.269 1064.18 750.355C1074.65 731.181 1068.75 722.322 1068.75 722.322Z" fill="#A52B00"/>
<path d="M149.064 691.467C149.064 697.895 150.357 704.227 152.852 710.436L144.341 725.586C144.341 725.586 137.523 734.432 149.529 753.094C160.119 769.549 213.164 833.961 241.161 867.692C253.187 884.985 261.34 895.637 262.054 894.608C263.178 892.975 254.578 860.508 230.695 823.467C219.551 803.572 206.241 777.215 198.253 757.746C220.556 771.862 249.736 784.666 284.405 795.686V587.251C200.861 613.799 149.064 650.684 149.064 691.467Z" fill="#A52B00"/>
<path d="M582.065 248.637L554.289 295.029C549.776 295.424 545.262 295.819 540.749 296.214L504.653 256.168C501.249 251.918 495.787 250.122 490.587 251.335C485.387 252.548 481.203 256.704 479.341 261.414L461.119 313.034C456.671 314.181 452.224 315.328 448.594 317.162L405.568 284.544C401.544 281.864 395.395 280.886 391.013 282.785C385.945 285.503 382.513 289.593 381.47 294.99L372.602 349.581C368.973 351.415 365.409 354 361.028 355.899L313.592 333.521C308.815 330.907 302.798 331.433 298.548 334.837C294.232 337.488 291.684 343.017 291.392 348.348L293.187 403.523C290.376 406.043 286.878 409.381 283.315 411.966L232.221 399.761C226.758 397.965 221.625 399.93 217.44 404.086C213.943 407.424 212.212 413.639 213.425 418.839L225.686 472.34C222.94 475.612 220.194 478.884 217.515 482.908L164.268 480.745C158.937 480.453 153.869 483.17 151.255 487.947C148.641 492.723 147.663 498.873 150.38 503.941L172.156 553.577C169.476 557.601 167.549 561.56 165.621 565.518L114.114 574.573C108.096 575.099 103.912 579.255 102.05 583.966C100.254 589.428 100.78 595.446 103.432 599.762L134.592 644.03C133.905 644.848 133.971 645.6 134.037 646.352L46.6294 738.891C46.6294 738.891 33.8793 749.102 52.7312 773.982C69.7497 795.232 157.578 880.777 203.979 925.985C223.386 948.542 236.738 962.534 238.176 961.65C240.235 959.196 229.028 917.73 190.704 869.542C161.114 825.895 122.649 758.769 131.083 751.21C131.083 751.21 141.313 738.187 162.469 728.757C161.651 728.07 161.651 728.07 162.469 728.757C162.469 728.757 597.665 929.441 1001.06 731.944C1047.3 723.35 1075.24 748.192 1075.24 748.192C1084.86 754.173 1059.81 823.065 1039.56 868.799C1011.49 920.522 1007.46 961.047 1009.85 962.354C1011.42 962.975 1021.45 947.696 1035.96 922.929C1071.81 873.557 1138.58 779.034 1150.96 755.969C1165.34 729.698 1151.01 721.857 1151.01 721.857L1057.86 653.452C1056.84 650.509 1055.83 647.566 1055.5 643.805L1085.73 599.472C1089.16 595.382 1089.39 589.298 1087.42 584.165C1085.46 579.031 1081.37 575.599 1075.97 574.555L1023.63 565.49C1021.8 561.861 1019.9 557.479 1018.07 553.85L1039.43 503.471C1042.05 498.695 1041.52 492.677 1038.05 487.675C1035.4 483.359 1030.62 480.745 1025.36 481.206L972.438 482.803C969.853 479.24 966.515 475.742 963.929 472.178L975.937 418.828C976.98 413.431 975.702 407.479 972.364 403.982C968.208 399.797 962.745 398.002 957.546 399.214L906.367 412.03C903.095 409.284 899.823 406.538 896.485 403.041L897.765 348.355C898.056 343.024 895.339 337.956 891.249 334.524C886.406 331.158 881.075 330.866 876.007 333.583L828.693 355.914C824.735 353.987 820.71 351.307 816.752 349.379L808.253 295.549C807.726 289.532 803.57 285.347 798.86 283.486C794.083 280.872 788.065 281.398 783.815 284.802L741.118 316.582C737.225 315.407 733.333 314.231 728.688 313.122L710.541 261.652C708.576 256.518 704.42 252.334 699.023 251.29C693.626 250.246 688.492 252.212 684.308 256.367L648.418 296.648C644.591 296.224 639.946 295.115 635.367 294.758L607.837 248.656C605.12 243.588 600.343 240.974 595.012 240.683C589.681 240.391 584.679 243.861 582.065 248.637Z" fill="url(#paint0_linear_3_2)"/>
<path d="M450.328 850.959C448.664 849.539 447.792 848.697 447.792 848.697L590.334 837.02C474.061 683.629 380.91 805.822 370.995 819.484V850.959H450.328Z" fill="black"/>
<path d="M747.12 849.307C748.783 847.887 749.656 847.043 749.656 847.043L612.672 837.02C729 677.333 816.541 804.168 826.455 817.83V849.307H747.12Z" fill="black"/>
<path d="M966.051 697.019C966.051 697.019 950.552 759.012 853.555 824.211L826.567 830.625C826.567 830.625 738.654 670.298 614.134 850.933C614.134 850.933 652.879 828.487 756.824 856.01C756.824 856.01 708.994 929.225 612.798 926.82C612.798 926.82 704.986 1037.71 845.539 877.654C845.539 877.654 994.108 820.203 1006.13 697.019L966.051 697.019Z" fill="url(#paint1_linear_3_2)"/>
<path d="M677.392 617.547C677.392 617.547 720.878 569.932 764.366 617.547C764.366 617.547 798.536 681.039 764.366 712.781C764.366 712.781 708.454 757.225 677.392 712.781C677.392 712.781 640.117 677.86 677.392 617.547Z" fill="black"/>
<path d="M727.738 635.211C727.738 653.752 716.808 668.783 703.33 668.783C689.853 668.783 678.924 653.752 678.924 635.211C678.924 616.67 689.853 601.637 703.33 601.637C716.808 601.637 727.738 616.67 727.738 635.211Z" fill="white"/>
<path d="M483.3 604.545C483.3 604.545 557.896 571.517 578.256 645.236C578.256 645.236 599.583 731.162 516.997 736.012C516.997 736.012 411.687 715.729 483.3 604.545Z" fill="black"/>
<path d="M520.766 636.428C520.766 655.547 509.496 671.055 495.593 671.055C481.695 671.055 470.422 655.547 470.422 636.428C470.422 617.304 481.695 601.801 495.593 601.801C509.496 601.801 520.766 617.304 520.766 636.428Z" fill="white"/>
<path d="M371.327 887.667C507.569 1062.39 572.105 922.086 572.105 922.086C495.618 913.482 441.36 862.57 441.36 862.57C533.144 850.858 586.207 849.902 586.207 849.902C463.35 687.846 363.679 834.605 363.679 834.605C338.82 825.522 313.245 790.864 294.363 758.835L218.115 736.367C305.836 885.516 371.327 887.667 371.327 887.667Z" fill="url(#paint2_linear_3_2)"/>
<rect x="91.2981" y="693" width="1038" height="187" rx="20" transform="rotate(5 91.2981 693)" fill="#F1F1F1"/>
<g clip-path="url(#clip1_3_2)">
<path d="M187.315 765.846C185.319 788.658 169.667 808.068 142.343 810.596L176.376 858.746L180.182 854.26L256.975 763.608L260.539 722.864L149.464 713.146C177.512 718.411 189.31 743.033 187.315 765.846Z" fill="#F5B21B"/>
<path d="M106.898 786.616L133.098 788.908C152.424 790.599 163.29 777.697 164.502 763.85C165.713 750.003 157.192 736.107 137.866 734.416L102.003 731.279L90.2279 865.865L157.172 871.721L105.931 797.674L106.898 786.616ZM197.829 868.252L254.399 802.231L247.635 879.536L192.247 874.69L197.829 868.252Z" fill="#283272"/>
<path d="M511.679 771.236L488.866 769.24L479.506 876.232L502.319 878.228L511.679 771.236Z" fill="#283272"/>
<path d="M640.048 866.688L521.51 856.217L519.453 879.727L638.897 890.177C647.863 890.961 655.739 888.137 662.555 882.509C669.272 876.873 673.43 869.508 674.214 860.542C674.998 851.576 672.174 843.7 666.547 836.884C660.911 830.167 653.545 826.009 644.579 825.225L557.755 817.127C552.674 816.682 548.856 812.132 549.301 807.052C549.754 801.871 554.295 798.153 559.476 798.606L678.729 808.939L680.733 786.027L561.29 775.577C552.324 774.792 544.448 777.617 537.631 783.244C530.915 788.88 526.757 796.246 525.972 805.211C525.188 814.177 528.012 822.053 533.64 828.87C539.276 835.586 546.603 839.038 555.668 839.831L642.437 847.423C647.617 847.876 651.435 852.426 650.882 857.597C650.502 863.085 645.627 867.176 640.048 866.688Z" fill="#283272"/>
<path d="M744.888 791.64L843.611 800.277L841.615 823.09L742.892 814.452C734.624 813.729 727.515 815.817 720.69 821.544C713.973 827.18 710.574 833.91 709.85 842.178C709.127 850.446 711.315 857.564 716.942 864.381C722.678 871.106 729.307 874.497 737.576 875.22L836.299 883.857L834.242 907.368L735.619 898.739C721.174 897.475 709.11 890.799 699.656 879.532C690.202 868.265 686.509 855.394 687.773 840.949C689.037 826.504 694.908 814.47 706.175 805.016C717.503 794.865 730.443 790.376 744.888 791.64Z" fill="#283272"/>
<path d="M434.694 807.866L339.475 799.335L341.166 780.009L437.416 788.229C442.596 788.682 446.414 793.232 446.06 798.421C445.464 804.09 440.372 808.363 434.694 807.866ZM462.969 874.785L436.272 829.988C444.601 830.014 451.719 827.826 457.838 822.137C464.563 816.402 468.712 809.136 469.497 800.17C470.281 791.204 467.457 783.328 461.83 776.512C456.202 769.695 448.828 765.637 439.862 764.853L320.418 754.403L311.058 861.394L333.871 863.39L337.557 821.251L407.988 827.413L434.686 872.21L462.978 874.685L462.969 874.785Z" fill="#283272"/>
<path d="M948.116 917.23L894.915 804.765L921.713 807.11L963.2 896.265L1019.44 815.66L1045.84 817.969L974.316 919.522" fill="#F5B21B"/>
<path d="M898.478 848.944L853.65 845.022L851.837 865.743L896.665 869.665L898.478 848.944Z" fill="#F5B21B"/>
<path d="M1088.18 838.839C1087.37 848.104 1079.45 854.839 1069.89 854.003C1060.53 853.183 1053.59 845.249 1054.41 835.884C1055.2 826.819 1063.32 820.101 1072.78 820.929C1082.24 821.856 1088.97 829.774 1088.18 838.839ZM1058.59 836.25C1057.96 843.523 1062.82 849.871 1070.29 850.525C1077.47 851.152 1083.35 845.845 1083.99 838.573C1084.62 831.3 1079.87 824.861 1072.5 824.216C1065.12 823.671 1059.22 829.078 1058.59 836.25ZM1068 845.806L1064.21 845.475L1065.65 829.038C1067.17 828.87 1069.28 828.854 1071.97 829.089C1075.06 829.359 1076.41 829.979 1077.54 830.781C1078.38 831.557 1078.96 832.913 1078.82 834.507C1078.67 836.3 1077.15 837.573 1075.1 837.996L1075.08 838.295C1076.62 839.032 1077.41 840.306 1077.72 842.541C1078 845.075 1078.21 846.098 1078.56 846.73L1074.47 846.373C1074.03 845.732 1073.86 844.211 1073.53 842.275C1073.38 840.456 1072.46 839.571 1070.37 839.388L1068.57 839.231L1068 845.806ZM1068.92 836.451L1070.71 836.608C1072.8 836.791 1074.56 836.242 1074.7 834.548C1074.83 833.054 1073.83 831.962 1071.43 831.753C1070.44 831.665 1069.73 831.704 1069.33 831.769L1068.92 836.451Z" fill="#283272"/>
</g>
</g>
<defs>
<linearGradient id="paint0_linear_3_2" x1="622.196" y1="996.269" x2="556.387" y2="244.062" gradientUnits="userSpaceOnUse">
<stop stop-color="#F74C00"/>
<stop offset="0.33" stop-color="#F74C00"/>
<stop offset="1" stop-color="#F49600"/>
</linearGradient>
<linearGradient id="paint1_linear_3_2" x1="809.465" y1="964.23" x2="809.465" y2="697.019" gradientUnits="userSpaceOnUse">
<stop stop-color="#CC3A00"/>
<stop offset="0.15" stop-color="#CC3A00"/>
<stop offset="0.74" stop-color="#F74C00"/>
<stop offset="1" stop-color="#F74C00"/>
</linearGradient>
<linearGradient id="paint2_linear_3_2" x1="402.161" y1="975.388" x2="402.161" y2="736.367" gradientUnits="userSpaceOnUse">
<stop stop-color="#CC3A00"/>
<stop offset="0.15" stop-color="#CC3A00"/>
<stop offset="0.74" stop-color="#F74C00"/>
<stop offset="1" stop-color="#F74C00"/>
</linearGradient>
<clipPath id="clip0_3_2">
<rect width="1200" height="800" fill="white" transform="translate(0 200)"/>
</clipPath>
<clipPath id="clip1_3_2">
<rect width="991.8" height="157.3" fill="white" transform="translate(103.938 709.163) rotate(5)"/>
</clipPath>
</defs>
</svg>
