<svg width="1200" height="800" viewBox="0 0 1200 800" fill="none" xmlns="http://www.w3.org/2000/svg">
<g clip-path="url(#clip0_1_3)">
<path d="M597.344 357.461C476.106 357.461 365.954 372.037 284.405 395.79V598.691C365.954 622.445 476.106 637.02 597.344 637.02C736.104 637.02 860.331 617.928 943.775 587.834V406.65C860.331 376.555 736.104 357.461 597.344 357.461Z" fill="#A52B00"/>
<path d="M1068.75 522.322L1054.54 492.881C1054.61 491.763 1054.67 490.644 1054.67 489.521C1054.67 456.146 1019.96 425.386 961.573 400.759V578.285C988.818 566.793 1010.92 553.968 1026.73 540.16C1022.08 558.867 1006.16 596.713 993.479 623.328C972.629 661.394 965.079 694.531 966.047 696.172C966.664 697.205 973.777 686.232 984.266 668.451C1008.68 633.67 1054.93 567.269 1064.18 550.355C1074.65 531.181 1068.75 522.322 1068.75 522.322Z" fill="#A52B00"/>
<path d="M149.064 491.467C149.064 497.895 150.357 504.227 152.852 510.436L144.341 525.586C144.341 525.586 137.523 534.432 149.529 553.094C160.119 569.549 213.164 633.961 241.161 667.692C253.187 684.985 261.34 695.637 262.054 694.608C263.178 692.975 254.578 660.508 230.695 623.467C219.551 603.572 206.241 577.215 198.253 557.746C220.556 571.862 249.736 584.666 284.405 595.686V387.251C200.861 413.799 149.064 450.684 149.064 491.467Z" fill="#A52B00"/>
<path d="M582.065 48.6373L554.289 95.0293C549.776 95.4242 545.262 95.819 540.749 96.2139L504.653 56.1679C501.249 51.9179 495.787 50.1219 490.587 51.3348C485.387 52.5477 481.203 56.7036 479.341 61.4143L461.119 113.034C456.671 114.181 452.224 115.328 448.594 117.162L405.568 84.5438C401.544 81.864 395.395 80.8861 391.013 82.7854C385.945 85.5026 382.513 89.5927 381.47 94.9898L372.602 149.581C368.973 151.415 365.409 154 361.028 155.899L313.592 133.521C308.815 130.907 302.798 131.433 298.548 134.837C294.232 137.488 291.684 143.017 291.392 148.348L293.187 203.523C290.376 206.043 286.878 209.381 283.315 211.966L232.221 199.761C226.758 197.965 221.625 199.93 217.44 204.086C213.943 207.424 212.212 213.639 213.425 218.839L225.686 272.34C222.94 275.612 220.194 278.884 217.515 282.908L164.268 280.745C158.937 280.453 153.869 283.17 151.255 287.947C148.641 292.723 147.663 298.873 150.38 303.941L172.156 353.577C169.476 357.601 167.549 361.56 165.621 365.518L114.114 374.572C108.096 375.099 103.912 379.255 102.05 383.966C100.254 389.428 100.78 395.446 103.432 399.762L134.592 444.03C133.905 444.848 133.971 445.6 134.037 446.352L46.6294 538.891C46.6294 538.891 33.8793 549.102 52.7312 573.982C69.7497 595.232 157.578 680.777 203.979 725.985C223.386 748.542 236.738 762.534 238.176 761.65C240.235 759.196 229.028 717.73 190.704 669.542C161.114 625.895 122.649 558.769 131.083 551.209C131.083 551.209 141.313 538.187 162.469 528.756C161.651 528.07 161.651 528.07 162.469 528.756C162.469 528.756 597.665 729.441 1001.06 531.944C1047.3 523.35 1075.24 548.192 1075.24 548.192C1084.86 554.172 1059.81 623.065 1039.56 668.799C1011.49 720.522 1007.46 761.047 1009.85 762.354C1011.42 762.975 1021.45 747.696 1035.96 722.929C1071.81 673.557 1138.58 579.033 1150.96 555.969C1165.34 529.698 1151.01 521.857 1151.01 521.857L1057.86 453.452C1056.84 450.509 1055.83 447.566 1055.5 443.805L1085.73 399.472C1089.16 395.382 1089.39 389.298 1087.42 384.164C1085.46 379.031 1081.37 375.599 1075.97 374.555L1023.63 365.49C1021.8 361.861 1019.9 357.479 1018.07 353.85L1039.43 303.471C1042.05 298.695 1041.52 292.677 1038.05 287.675C1035.4 283.359 1030.62 280.745 1025.36 281.206L972.438 282.803C969.853 279.24 966.515 275.742 963.929 272.178L975.937 218.828C976.98 213.431 975.702 207.479 972.364 203.982C968.208 199.797 962.745 198.001 957.546 199.214L906.367 212.03C903.095 209.284 899.823 206.538 896.485 203.041L897.765 148.355C898.056 143.024 895.339 137.956 891.249 134.524C886.406 131.158 881.075 130.866 876.007 133.583L828.693 155.914C824.735 153.986 820.71 151.307 816.752 149.379L808.253 95.5493C807.726 89.5316 803.57 85.3474 798.86 83.4857C794.083 80.8717 788.065 81.3982 783.815 84.8018L741.118 116.582C737.225 115.407 733.333 114.231 728.688 113.122L710.541 61.6519C708.576 56.5181 704.42 52.3339 699.023 51.2902C693.626 50.2464 688.492 52.2115 684.308 56.3674L648.418 96.6476C644.591 96.2244 639.946 95.1149 635.367 94.7575L607.837 48.6564C605.12 43.5884 600.343 40.9744 595.012 40.6828C589.681 40.3913 584.679 43.8608 582.065 48.6373Z" fill="url(#paint0_linear_1_3)"/>
<path d="M450.328 650.959C448.664 649.539 447.792 648.697 447.792 648.697L590.334 637.02C474.061 483.629 380.91 605.822 370.995 619.484V650.959H450.328Z" fill="black"/>
<path d="M747.12 649.307C748.783 647.887 749.656 647.043 749.656 647.043L612.672 637.02C729 477.333 816.541 604.168 826.455 617.83V649.307H747.12Z" fill="black"/>
<path d="M966.051 497.019C966.051 497.019 950.552 559.012 853.555 624.211L826.567 630.624C826.567 630.624 738.654 470.298 614.134 650.933C614.134 650.933 652.879 628.487 756.824 656.01C756.824 656.01 708.994 729.225 612.798 726.82C612.798 726.82 704.986 837.713 845.539 677.654C845.539 677.654 994.108 620.203 1006.13 497.019L966.051 497.019Z" fill="url(#paint1_linear_1_3)"/>
<path d="M677.392 417.547C677.392 417.547 720.878 369.932 764.366 417.547C764.366 417.547 798.536 481.039 764.366 512.781C764.366 512.781 708.454 557.225 677.392 512.781C677.392 512.781 640.117 477.86 677.392 417.547Z" fill="black"/>
<path d="M727.738 435.211C727.738 453.752 716.808 468.783 703.33 468.783C689.853 468.783 678.924 453.752 678.924 435.211C678.924 416.67 689.853 401.637 703.33 401.637C716.808 401.637 727.738 416.67 727.738 435.211Z" fill="white"/>
<path d="M483.3 404.545C483.3 404.545 557.896 371.517 578.256 445.236C578.256 445.236 599.583 531.162 516.997 536.012C516.997 536.012 411.687 515.729 483.3 404.545Z" fill="black"/>
<path d="M520.766 436.428C520.766 455.547 509.496 471.055 495.593 471.055C481.695 471.055 470.422 455.547 470.422 436.428C470.422 417.304 481.695 401.801 495.593 401.801C509.496 401.801 520.766 417.304 520.766 436.428Z" fill="white"/>
<path d="M371.327 687.667C507.569 862.392 572.105 722.086 572.105 722.086C495.618 713.481 441.36 662.57 441.36 662.57C533.144 650.858 586.207 649.902 586.207 649.902C463.35 487.846 363.679 634.605 363.679 634.605C338.82 625.522 313.245 590.864 294.363 558.835L218.115 536.367C305.836 685.516 371.327 687.667 371.327 687.667Z" fill="url(#paint2_linear_1_3)"/>
<rect x="91.2981" y="493" width="1038" height="187" rx="20" transform="rotate(5 91.2981 493)" fill="#F1F1F1"/>
<g clip-path="url(#clip1_1_3)">
<path d="M187.315 565.846C185.319 588.658 169.667 608.068 142.343 610.596L176.376 658.746L180.182 654.26L256.975 563.608L260.539 522.864L149.464 513.146C177.512 518.411 189.31 543.033 187.315 565.846Z" fill="#F5B21B"/>
<path d="M106.898 586.616L133.098 588.908C152.424 590.599 163.29 577.697 164.502 563.85C165.713 550.003 157.192 536.107 137.866 534.416L102.003 531.279L90.2279 665.865L157.172 671.721L105.931 597.674L106.898 586.616ZM197.829 668.252L254.399 602.231L247.635 679.536L192.247 674.69L197.829 668.252Z" fill="#283272"/>
<path d="M511.679 571.236L488.866 569.24L479.506 676.232L502.319 678.228L511.679 571.236Z" fill="#283272"/>
<path d="M640.048 666.688L521.51 656.217L519.453 679.727L638.897 690.177C647.863 690.961 655.739 688.137 662.555 682.509C669.272 676.873 673.43 669.508 674.214 660.542C674.998 651.576 672.174 643.7 666.547 636.884C660.911 630.167 653.545 626.009 644.579 625.225L557.755 617.127C552.674 616.682 548.856 612.132 549.301 607.052C549.754 601.871 554.295 598.153 559.476 598.606L678.729 608.939L680.733 586.027L561.29 575.577C552.324 574.792 544.448 577.617 537.631 583.244C530.915 588.88 526.757 596.246 525.972 605.211C525.188 614.177 528.012 622.053 533.64 628.87C539.276 635.586 546.603 639.038 555.668 639.831L642.437 647.423C647.617 647.876 651.435 652.426 650.882 657.597C650.502 663.085 645.627 667.176 640.048 666.688Z" fill="#283272"/>
<path d="M744.888 591.639L843.611 600.277L841.615 623.089L742.892 614.452C734.624 613.729 727.515 615.817 720.69 621.544C713.973 627.18 710.574 633.91 709.85 642.178C709.127 650.446 711.315 657.564 716.942 664.381C722.678 671.106 729.307 674.497 737.576 675.22L836.299 683.857L834.242 707.368L735.619 698.739C721.174 697.475 709.11 690.799 699.656 679.532C690.202 668.265 686.509 655.394 687.773 640.949C689.037 626.504 694.908 614.47 706.175 605.016C717.503 594.865 730.443 590.376 744.888 591.639Z" fill="#283272"/>
<path d="M434.694 607.866L339.475 599.335L341.166 580.008L437.416 588.228C442.596 588.682 446.414 593.232 446.06 598.421C445.464 604.09 440.372 608.363 434.694 607.866ZM462.969 674.785L436.272 629.988C444.601 630.014 451.719 627.826 457.838 622.137C464.563 616.402 468.712 609.136 469.497 600.17C470.281 591.204 467.457 583.328 461.83 576.512C456.202 569.695 448.828 565.637 439.862 564.853L320.418 554.403L311.058 661.394L333.871 663.39L337.557 621.251L407.988 627.413L434.686 672.21L462.978 674.685L462.969 674.785Z" fill="#283272"/>
<path d="M948.116 717.23L894.915 604.765L921.713 607.11L963.2 696.265L1019.44 615.66L1045.84 617.969L974.316 719.522" fill="#F5B21B"/>
<path d="M898.478 648.944L853.65 645.022L851.837 665.743L896.665 669.665L898.478 648.944Z" fill="#F5B21B"/>
<path d="M1088.18 638.839C1087.37 648.104 1079.45 654.839 1069.89 654.003C1060.53 653.183 1053.59 645.249 1054.41 635.884C1055.2 626.819 1063.32 620.101 1072.78 620.929C1082.24 621.856 1088.97 629.774 1088.18 638.839ZM1058.59 636.25C1057.96 643.523 1062.82 649.871 1070.29 650.525C1077.47 651.152 1083.35 645.845 1083.99 638.573C1084.62 631.3 1079.87 624.861 1072.5 624.216C1065.12 623.671 1059.22 629.078 1058.59 636.25ZM1068 645.806L1064.21 645.475L1065.65 629.038C1067.17 628.87 1069.28 628.854 1071.97 629.089C1075.06 629.359 1076.41 629.979 1077.54 630.781C1078.38 631.557 1078.96 632.913 1078.82 634.507C1078.67 636.3 1077.15 637.573 1075.1 637.996L1075.08 638.295C1076.62 639.032 1077.41 640.306 1077.72 642.541C1078 645.075 1078.21 646.098 1078.56 646.73L1074.47 646.373C1074.03 645.732 1073.86 644.211 1073.53 642.275C1073.38 640.456 1072.46 639.571 1070.37 639.388L1068.57 639.231L1068 645.806ZM1068.92 636.451L1070.71 636.608C1072.8 636.791 1074.56 636.242 1074.7 634.548C1074.83 633.054 1073.83 631.962 1071.43 631.753C1070.44 631.665 1069.73 631.704 1069.33 631.769L1068.92 636.451Z" fill="#283272"/>
</g>
</g>
<defs>
<linearGradient id="paint0_linear_1_3" x1="622.196" y1="796.269" x2="556.387" y2="44.0621" gradientUnits="userSpaceOnUse">
<stop stop-color="#F74C00"/>
<stop offset="0.33" stop-color="#F74C00"/>
<stop offset="1" stop-color="#F49600"/>
</linearGradient>
<linearGradient id="paint1_linear_1_3" x1="809.465" y1="764.23" x2="809.465" y2="497.019" gradientUnits="userSpaceOnUse">
<stop stop-color="#CC3A00"/>
<stop offset="0.15" stop-color="#CC3A00"/>
<stop offset="0.74" stop-color="#F74C00"/>
<stop offset="1" stop-color="#F74C00"/>
</linearGradient>
<linearGradient id="paint2_linear_1_3" x1="402.161" y1="775.388" x2="402.161" y2="536.367" gradientUnits="userSpaceOnUse">
<stop stop-color="#CC3A00"/>
<stop offset="0.15" stop-color="#CC3A00"/>
<stop offset="0.74" stop-color="#F74C00"/>
<stop offset="1" stop-color="#F74C00"/>
</linearGradient>
<clipPath id="clip0_1_3">
<rect width="1200" height="800" fill="white"/>
</clipPath>
<clipPath id="clip1_1_3">
<rect width="991.8" height="157.3" fill="white" transform="translate(103.938 509.163) rotate(5)"/>
</clipPath>
</defs>
</svg>
